<?xml version="1.0" encoding="UTF-8" standalone="no"?>
<svg
   xmlns:dc="http://purl.org/dc/elements/1.1/"
   xmlns:cc="http://creativecommons.org/ns#"
   xmlns:rdf="http://www.w3.org/1999/02/22-rdf-syntax-ns#"
   xmlns:svg="http://www.w3.org/2000/svg"
   xmlns="http://www.w3.org/2000/svg"
   xmlns:sodipodi="http://sodipodi.sourceforge.net/DTD/sodipodi-0.dtd"
   xmlns:inkscape="http://www.inkscape.org/namespaces/inkscape"
   viewBox="0 0 43.438671 42.366486"
   height="42.366486"
   width="43.438671"
   xml:space="preserve"
   id="svg2"
   version="1.1"
   sodipodi:docname="GitHub-Mark.svg"
   inkscape:version="0.92.4 (5da689c313, 2019-01-14)"><sodipodi:namedview
     pagecolor="#ffffff"
     bordercolor="#666666"
     borderopacity="1"
     objecttolerance="10"
     gridtolerance="10"
     guidetolerance="10"
     inkscape:pageopacity="0"
     inkscape:pageshadow="2"
     inkscape:window-width="3000"
     inkscape:window-height="1875"
     id="namedview204"
     showgrid="false"
     inkscape:zoom="2.3520471"
     inkscape:cx="172.22001"
     inkscape:cy="-149.00765"
     inkscape:window-x="-13"
     inkscape:window-y="-13"
     inkscape:window-maximized="1"
     inkscape:current-layer="svg2"
     fit-margin-top="0"
     fit-margin-left="0"
     fit-margin-right="0"
     fit-margin-bottom="0" /><metadata
     id="metadata8"><rdf:RDF><cc:Work
         rdf:about=""><dc:format>image/svg+xml</dc:format><dc:type
           rdf:resource="http://purl.org/dc/dcmitype/StillImage" /><dc:title></dc:title></cc:Work></rdf:RDF></metadata><defs
     id="defs6" /><path
     id="path16"
     style="fill:#1b1817;fill-opacity:1;fill-rule:evenodd;stroke:none;stroke-width:0.13333333"
     d="M 21.71733,0 C 9.72533,0 0,9.724 0,21.72 c 0,9.594662 6.22266,17.736002 14.85333,20.609332 1.08667,0.19867 1.48267,-0.472 1.48267,-1.048 0,-0.516 -0.0187,-1.88133 -0.0293,-3.69333 -6.04133,1.312 -7.316,-2.912 -7.316,-2.912 -0.988,-2.50934 -2.412,-3.17734 -2.412,-3.17734 -1.972,-1.34666 0.14934,-1.32 0.14934,-1.32 2.18,0.15334 3.32666,2.23867 3.32666,2.23867 1.93734,3.31867 5.084,2.36 6.32134,1.804 0.19733,-1.40267 0.75866,-2.36 1.37866,-2.90267 -4.82266,-0.54933 -9.89333,-2.412 -9.89333,-10.734662 0,-2.372 0.84667,-4.309334 2.236,-5.828 -0.224,-0.549334 -0.96933,-2.757333 0.21333,-5.748 0,0 1.82267,-0.584 5.972,2.225333 1.732,-0.481333 3.59067,-0.721333 5.43733,-0.730666 1.84534,0.0093 3.70267,0.249333 5.43734,0.730666 C 31.30403,8.424 33.12403,9.008 33.12403,9.008 c 1.18534,2.990667 0.44,5.198666 0.21734,5.748 1.392,1.518666 2.232,3.456 2.232,5.828 0,8.344002 -5.07867,10.180002 -9.916,10.717332 0.77866,0.67067 1.47333,1.996 1.47333,4.02267 0,2.90266 -0.0267,5.24533 -0.0267,5.95733 0,0.58133 0.392,1.25733 1.49334,1.04533 C 37.22134,39.448002 43.43867,31.313332 43.43867,21.72 43.43867,9.724 33.71334,0 21.71734,0"
     inkscape:connector-curvature="0" /></svg>